<?xml version="1.0" encoding="utf-8"?>
<!-- Generator: Adobe Illustrator 16.0.0, SVG Export Plug-In . SVG Version: 6.00 Build 0)  -->
<!DOCTYPE svg PUBLIC "-//W3C//DTD SVG 1.1//EN" "http://www.w3.org/Graphics/SVG/1.1/DTD/svg11.dtd">
<svg version="1.1" id="Layer_2" xmlns="http://www.w3.org/2000/svg" xmlns:xlink="http://www.w3.org/1999/xlink" x="0px" y="0px"
	 width="50px" height="50px" viewBox="25 25 50 50" enable-background="new 25 25 50 50" xml:space="preserve">
<path fill="#FFFFFF" d="M50,25.5C36.49,25.5,25.5,36.491,25.5,50c0,13.51,10.99,24.5,24.5,24.5S74.5,63.51,74.5,50
	C74.5,36.491,63.509,25.5,50,25.5z M50,72.109C37.809,72.109,27.89,62.19,27.89,50c0-12.191,9.919-22.11,22.109-22.11
	c12.191,0,22.11,9.919,22.11,22.11C72.109,62.19,62.19,72.109,50,72.109z M57.048,63.355v3.243c0,0.137-0.111,0.245-0.245,0.245
	H44.896c-0.136,0-0.245-0.109-0.245-0.245v-3.243c0-0.136,0.11-0.246,0.245-0.246h3.43V45.822H44.86
	c-0.136,0-0.244-0.11-0.244-0.244V42.26c0-0.136,0.108-0.244,0.244-0.244h8.125c0.136,0,0.244,0.109,0.244,0.244v20.85h3.572
	C56.937,63.109,57.048,63.22,57.048,63.355z M46.227,35.958c0-2.063,1.671-3.735,3.735-3.735c2.063,0,3.735,1.672,3.735,3.735
	s-1.672,3.735-3.735,3.735C47.897,39.693,46.227,38.021,46.227,35.958z"/>
</svg>
