<?xml version="1.0" encoding="utf-8"?>
<!-- Generator: Adobe Illustrator 16.0.0, SVG Export Plug-In . SVG Version: 6.00 Build 0)  -->
<!DOCTYPE svg PUBLIC "-//W3C//DTD SVG 1.1//EN" "http://www.w3.org/Graphics/SVG/1.1/DTD/svg11.dtd">
<svg version="1.1" id="Layer_2" xmlns="http://www.w3.org/2000/svg" xmlns:xlink="http://www.w3.org/1999/xlink" x="0px" y="0px"
	 width="100px" height="100px" viewBox="0 0 100 100" enable-background="new 0 0 100 100" xml:space="preserve">
<path fill="#FFFFFF" d="M49.999,9.001C27.392,9.001,9.001,27.393,9.001,50c0,22.607,18.391,40.999,40.998,40.999
	c22.606,0,41-18.392,41-40.999C90.999,27.393,72.605,9.001,49.999,9.001z M49.999,86.999c-20.4,0-36.998-16.599-36.998-36.999
	c0-20.401,16.598-36.999,36.998-36.999c20.401,0,37,16.598,37,36.999C86.999,70.4,70.4,86.999,49.999,86.999z M61.794,72.35v5.428
	c0,0.228-0.187,0.41-0.41,0.41H41.458c-0.227,0-0.41-0.184-0.41-0.41V72.35c0-0.228,0.184-0.412,0.41-0.412h5.74v-28.93h-5.799
	c-0.227,0-0.408-0.184-0.408-0.409v-5.551c0-0.228,0.182-0.41,0.408-0.41h13.596c0.228,0,0.409,0.183,0.409,0.41v34.89h5.979
	C61.607,71.938,61.794,72.122,61.794,72.35z M43.685,26.502c0-3.452,2.797-6.25,6.25-6.25c3.452,0,6.25,2.798,6.25,6.25
	s-2.799,6.25-6.25,6.25C46.481,32.752,43.685,29.954,43.685,26.502z"/>
</svg>
