<?xml version="1.0" encoding="utf-8"?>
<!-- Generator: Adobe Illustrator 16.0.0, SVG Export Plug-In . SVG Version: 6.00 Build 0)  -->
<!DOCTYPE svg PUBLIC "-//W3C//DTD SVG 1.1//EN" "http://www.w3.org/Graphics/SVG/1.1/DTD/svg11.dtd">
<svg version="1.1" id="Layer_2" xmlns="http://www.w3.org/2000/svg" xmlns:xlink="http://www.w3.org/1999/xlink" x="0px" y="0px"
	 width="50px" height="50px" viewBox="0 0 50 50" enable-background="new 0 0 50 50" xml:space="preserve">
<path fill="#AA0000" d="M25,0.5C11.49,0.5,0.5,11.491,0.5,25c0,13.51,10.99,24.5,24.5,24.5S49.5,38.51,49.5,25
	C49.5,11.491,38.509,0.5,25,0.5z M25,47.109c-12.191,0-22.109-9.92-22.109-22.109c0-12.191,9.918-22.109,22.108-22.109
	S47.109,12.809,47.109,25C47.109,37.189,37.189,47.109,25,47.109z M32.048,38.355v3.242c0,0.137-0.11,0.245-0.245,0.245H19.896
	c-0.137,0-0.246-0.108-0.246-0.245v-3.242c0-0.137,0.111-0.246,0.246-0.246h3.43V20.822h-3.467c-0.135,0-0.243-0.11-0.243-0.244
	V17.26c0-0.136,0.108-0.244,0.243-0.244h8.125c0.137,0,0.244,0.109,0.244,0.244v20.85h3.572
	C31.938,38.109,32.048,38.22,32.048,38.355z M21.227,10.958c0-2.063,1.672-3.735,3.735-3.735s3.735,1.672,3.735,3.735
	s-1.672,3.735-3.735,3.735C22.896,14.693,21.227,13.021,21.227,10.958z"/>
</svg>
