<?xml version="1.0" encoding="utf-8"?>
<!-- Generator: Adobe Illustrator 16.0.0, SVG Export Plug-In . SVG Version: 6.00 Build 0)  -->
<!DOCTYPE svg PUBLIC "-//W3C//DTD SVG 1.1//EN" "http://www.w3.org/Graphics/SVG/1.1/DTD/svg11.dtd">
<svg version="1.1" id="Capa_1" xmlns="http://www.w3.org/2000/svg" xmlns:xlink="http://www.w3.org/1999/xlink" x="0px" y="0px"
	 width="32.666px" height="32.667px" viewBox="0 0 32.666 32.667" enable-background="new 0 0 32.666 32.667" xml:space="preserve">
<path fill="#FFFFFF" d="M16.333,0C7.326,0,0,7.327,0,16.334c0,9.005,7.326,16.333,16.333,16.333c0.557,0,1.007-0.451,1.007-1.006
	c0-0.557-0.45-1.008-1.007-1.008c-7.896,0-14.318-6.424-14.318-14.319c0-7.896,6.422-14.32,14.318-14.32
	c7.896,0,14.318,6.424,14.318,14.32c0,3.299-1.756,6.571-4.27,7.956c-0.912,0.502-1.902,0.75-2.959,0.76
	c0.635-0.377,1.184-0.887,1.592-1.531c0.08-0.12,0.185-0.225,0.237-0.359c0.328-0.789,0.356-1.683,0.556-2.516
	c0.242-1.066-4.658-3.143-5.084-1.814c-0.154,0.492-0.391,2.047-0.699,2.457c-0.276,0.366-0.953,0.193-1.377-0.168
	c-1.117-0.951-2.365-2.351-3.459-3.457h0.002c-0.028-0.029-0.062-0.062-0.092-0.092c-0.031-0.029-0.062-0.063-0.093-0.092v0.001
	c-1.106-1.093-2.506-2.339-3.457-3.459c-0.36-0.424-0.534-1.1-0.168-1.376c0.41-0.31,1.966-0.543,2.458-0.698
	c1.326-0.425-0.75-5.329-1.816-5.084c-0.832,0.195-1.727,0.225-2.516,0.552c-0.134,0.056-0.238,0.16-0.359,0.24
	c-2.799,1.775-3.16,6.083-0.428,9.292c1.041,1.228,2.127,2.416,3.245,3.575l-0.006,0.005c0.031,0.031,0.063,0.06,0.095,0.089
	c0.03,0.032,0.059,0.063,0.088,0.096l0.006-0.006c1.16,1.117,2.535,2.764,4.769,4.254c4.703,3.141,8.313,2.265,10.438,1.098
	c3.67-2.021,5.312-6.338,5.312-9.718C32.666,7.327,25.339,0,16.333,0z"/>
</svg>
