<?xml version="1.0" encoding="utf-8"?>
<!-- Generator: Adobe Illustrator 16.0.0, SVG Export Plug-In . SVG Version: 6.00 Build 0)  -->
<!DOCTYPE svg PUBLIC "-//W3C//DTD SVG 1.1//EN" "http://www.w3.org/Graphics/SVG/1.1/DTD/svg11.dtd">
<svg version="1.1" id="Capa_1" xmlns="http://www.w3.org/2000/svg" xmlns:xlink="http://www.w3.org/1999/xlink" x="0px" y="0px"
	 width="50px" height="50px" viewBox="-8.667 -8.667 50 50" enable-background="new -8.667 -8.667 50 50" xml:space="preserve">
<path fill="#FFFFFF" d="M16.333-8.167c-13.511,0-24.5,10.991-24.5,24.501c0,13.508,10.989,24.5,24.5,24.5
	c0.835,0,1.511-0.677,1.511-1.509c0-0.836-0.676-1.513-1.511-1.513c-11.844,0-21.477-9.636-21.477-21.479
	c0-11.844,9.633-21.48,21.477-21.48c11.845,0,21.478,9.636,21.478,21.48c0,4.948-2.634,9.858-6.405,11.935
	c-1.367,0.753-2.853,1.125-4.438,1.14c0.953-0.565,1.776-1.33,2.389-2.297c0.12-0.18,0.277-0.337,0.354-0.539
	c0.492-1.184,0.533-2.523,0.835-3.773c0.362-1.6-6.987-4.714-7.626-2.722c-0.231,0.738-0.587,3.07-1.049,3.686
	c-0.414,0.55-1.43,0.29-2.065-0.252c-1.676-1.427-3.548-3.526-5.189-5.186h0.003c-0.042-0.044-0.093-0.093-0.138-0.138
	c-0.047-0.044-0.093-0.094-0.14-0.138v0.001c-1.659-1.64-3.759-3.508-5.186-5.188c-0.54-0.636-0.801-1.65-0.252-2.064
	c0.615-0.465,2.949-0.815,3.687-1.048c1.989-0.637-1.125-7.993-2.724-7.626c-1.248,0.293-2.59,0.338-3.774,0.829
	c-0.201,0.084-0.357,0.24-0.539,0.359c-4.198,2.663-4.74,9.125-0.642,13.938c1.561,1.842,3.19,3.624,4.867,5.363l-0.009,0.008
	c0.046,0.047,0.094,0.089,0.143,0.133c0.045,0.049,0.088,0.094,0.132,0.144l0.009-0.009c1.74,1.676,3.803,4.146,7.154,6.381
	c7.055,4.713,12.47,3.398,15.657,1.648c5.505-3.031,7.968-9.509,7.968-14.578C40.833,2.824,29.842-8.167,16.333-8.167z"/>
</svg>
