<?xml version="1.0" encoding="utf-8"?>
<!-- Generator: Adobe Illustrator 16.0.0, SVG Export Plug-In . SVG Version: 6.00 Build 0)  -->
<!DOCTYPE svg PUBLIC "-//W3C//DTD SVG 1.1//EN" "http://www.w3.org/Graphics/SVG/1.1/DTD/svg11.dtd">
<svg version="1.1" id="Capa_1" xmlns="http://www.w3.org/2000/svg" xmlns:xlink="http://www.w3.org/1999/xlink" x="0px" y="0px"
	 width="50px" height="50px" viewBox="0 0 50 50" enable-background="new 0 0 50 50" xml:space="preserve">
<path fill="#AA0000" d="M25,0.5C11.489,0.5,0.5,11.491,0.5,25.001c0,13.508,10.989,24.5,24.5,24.5c0.835,0,1.512-0.677,1.512-1.509
	c0-0.836-0.677-1.513-1.512-1.513C13.156,46.479,3.523,36.843,3.523,25C3.523,13.156,13.156,3.52,25,3.52
	c11.845,0,21.478,9.636,21.478,21.48c0,4.948-2.634,9.858-6.404,11.935c-1.367,0.754-2.854,1.125-4.438,1.141
	c0.953-0.565,1.776-1.33,2.39-2.297c0.119-0.18,0.276-0.338,0.354-0.539c0.492-1.185,0.533-2.523,0.835-3.773
	c0.362-1.6-6.986-4.714-7.626-2.722c-0.231,0.738-0.587,3.07-1.049,3.686c-0.414,0.551-1.431,0.29-2.065-0.252
	c-1.676-1.427-3.548-3.525-5.188-5.186h0.003c-0.042-0.044-0.093-0.094-0.138-0.139c-0.047-0.043-0.093-0.094-0.14-0.138v0.001
	c-1.659-1.64-3.759-3.508-5.186-5.188c-0.54-0.636-0.801-1.65-0.252-2.064c0.615-0.465,2.949-0.815,3.687-1.048
	c1.989-0.637-1.125-7.993-2.724-7.626c-1.248,0.293-2.59,0.338-3.774,0.829c-0.201,0.084-0.357,0.24-0.539,0.359
	c-4.198,2.663-4.74,9.125-0.642,13.938c1.561,1.842,3.19,3.624,4.867,5.362l-0.009,0.009c0.046,0.047,0.094,0.089,0.143,0.133
	c0.045,0.049,0.088,0.095,0.132,0.144l0.009-0.008c1.74,1.676,3.803,4.146,7.154,6.38c7.055,4.713,12.47,3.398,15.657,1.648
	c5.505-3.031,7.968-9.509,7.968-14.578C49.5,11.491,38.509,0.5,25,0.5z"/>
</svg>
