<?xml version="1.0" encoding="utf-8"?>
<!-- Generator: Adobe Illustrator 16.0.0, SVG Export Plug-In . SVG Version: 6.00 Build 0)  -->
<!DOCTYPE svg PUBLIC "-//W3C//DTD SVG 1.1//EN" "http://www.w3.org/Graphics/SVG/1.1/DTD/svg11.dtd">
<svg version="1.1" id="Layer_1" xmlns="http://www.w3.org/2000/svg" xmlns:xlink="http://www.w3.org/1999/xlink" x="0px" y="0px"
	 width="50px" height="50px" viewBox="0 0 50 50" enable-background="new 0 0 50 50" xml:space="preserve">
<path fill="#A80000" d="M43.706,40.939V16.617H26.032l10.577-10.58l-1.172-1.173L25,15.301L14.565,4.864l-1.174,1.173l10.576,10.58
	H6.294v24.322h13.652v1.8H16.52v2.396h16.958v-2.396h-3.427v-1.8H43.706L43.706,40.939z M41.218,36.744h-6.997
	c-0.152-2.889-1.617-5.418-3.818-7.008c0.387-0.514,0.707-1.084,0.938-1.707c0.75-0.035,1.354-0.828,1.354-1.799
	c0-0.748-0.367-1.384-0.896-1.646c0.145-1.304,0.131-3.433-1.773-4.856c-0.305-0.228-0.604-0.434-0.897-0.625h12.101v17.64
	L41.218,36.744L41.218,36.744z M26.354,36.211V34.51h-0.185c0.058-0.111,0.104-0.232,0.123-0.359H25.88
	c-0.006,0.121-0.017,0.24-0.034,0.359h-0.188c0.021-0.117,0.03-0.238,0.034-0.359h-0.615v0.359h-0.189V34.15h-0.612
	c0.006,0.121,0.021,0.242,0.039,0.357h-0.189c-0.018-0.115-0.033-0.236-0.039-0.357h-0.371c0.023,0.127,0.066,0.248,0.127,0.357
	h-0.188v1.701h0.645l0.033,0.533h-1.826v-4.791c0.779,0.313,1.627,0.479,2.502,0.479c1.061,0,2.076-0.246,2.984-0.695v5.011H25.68
	l0.034-0.533L26.354,36.211L26.354,36.211L26.354,36.211z M23.8,36.063v-1.399h2.402v1.399H23.8z M18.522,25.91
	c0.182-0.707,1.176-2.874,3.881-3.5c0.065-0.013,0.123-0.034,0.182-0.05c1.438,0.992,2.164,0.758,3.545,0.5
	c0.397-0.074,0.754-0.104,1.097-0.115c0.823-0.028,1.489,0.105,2.024,0.341c0.978,0.604,1.58,1.409,1.912,2.045
	c0.196,0.53,0.228,0.95,0.192,1.004c0.015,0.006,0.063-0.082,0.121-0.225c0.029,0.127,0.041,0.209,0.025,0.225
	c0.025,0.012,0.156-0.391,0.244-1.003c0.018,0.014,0.027,0.029,0.045,0.045c0.051,0.047,0.104,0.096,0.145,0.153
	c0.006,0.006,0.006,0.015,0.013,0.022c0.051,0.07,0.096,0.15,0.133,0.24c0.006,0.008,0.008,0.023,0.012,0.033
	c0.033,0.084,0.062,0.172,0.082,0.264c0.021,0.109,0.033,0.227,0.033,0.342c0,0.723-0.406,1.307-0.906,1.316
	c-0.008-0.006-0.021-0.008-0.028-0.01c-0.021-0.008-0.032-0.014-0.06-0.016c0,0-0.002,0-0.004,0l-0.194-0.025h-0.002l-0.063,0.184
	c-0.223,0.656-0.549,1.254-0.947,1.783c-0.479,0.633-1.07,1.166-1.744,1.576c-0.088,0.053-0.18,0.1-0.271,0.148
	c-0.896,0.484-1.918,0.76-2.984,0.76c-0.881,0-1.727-0.188-2.5-0.521c-0.26-0.113-0.516-0.242-0.76-0.389
	c-0.672-0.41-1.264-0.943-1.742-1.572c-0.402-0.533-0.727-1.131-0.947-1.785l-0.064-0.186l-0.196,0.025c-0.002,0-0.002,0-0.002,0
	c-0.026,0.004-0.045,0.008-0.06,0.016c-0.01,0.004-0.022,0.006-0.03,0.01c-0.5-0.012-0.904-0.596-0.904-1.314
	c0-0.119,0.013-0.23,0.033-0.342c0.019-0.094,0.049-0.178,0.08-0.264c0.004-0.01,0.006-0.025,0.012-0.035
	c0.037-0.088,0.084-0.167,0.131-0.24c0.007-0.008,0.011-0.017,0.017-0.021c0.041-0.059,0.09-0.107,0.141-0.153
	c0.016-0.016,0.029-0.032,0.045-0.045c0.09,0.612,0.217,1.014,0.244,1.004C18.481,26.119,18.491,26.037,18.522,25.91z M8.784,19.104
	h12.391c-0.693,0.316-1.373,0.804-1.895,1.426c-1.039,1.244-1.18,2.882-1.088,4.066c-0.525,0.266-0.883,0.898-0.883,1.636
	c0,0.969,0.604,1.762,1.352,1.797c0.232,0.623,0.555,1.195,0.939,1.707c-2.201,1.59-3.664,4.123-3.818,7.01H8.784V19.104z
	 M11.813,39.742H9.071v-1.199h2.742V39.742z M21.478,26.135c0-0.432,0.349-0.779,0.775-0.779c0.432,0,0.781,0.349,0.781,0.779
	s-0.35,0.779-0.781,0.779C21.825,26.914,21.478,26.563,21.478,26.135z M23.054,29.828c0.457,0.309,1.156,0.508,1.947,0.508
	s1.487-0.199,1.947-0.508c-0.316,0.486-1.068,0.824-1.947,0.824S23.368,30.314,23.054,29.828z M26.966,26.135
	c0-0.432,0.351-0.779,0.779-0.779c0.428,0,0.778,0.349,0.778,0.779s-0.352,0.779-0.778,0.779
	C27.314,26.914,26.966,26.563,26.966,26.135z M24.323,33.475h0.561v0.488h-0.615C24.272,33.795,24.292,33.633,24.323,33.475z
	 M24.646,32.639c0.078-0.021,0.158-0.037,0.238-0.045v0.691h-0.516C24.433,33.059,24.526,32.842,24.646,32.639z M25.628,33.475
	c0.035,0.158,0.054,0.32,0.062,0.488h-0.615v-0.488H25.628z M24.372,32.748c-0.082,0.172-0.15,0.352-0.197,0.537h-0.336
	C23.962,33.059,24.146,32.871,24.372,32.748z M26.245,33.475c0.045,0.135,0.071,0.279,0.071,0.432c0,0.021-0.002,0.035-0.004,0.059
	h-0.438c-0.01-0.166-0.025-0.328-0.061-0.484h0.429L26.245,33.475L26.245,33.475z M25.581,33.285h-0.508v-0.693
	c0.068,0.004,0.133,0.012,0.197,0.025C25.403,32.824,25.509,33.047,25.581,33.285z M26.163,33.285h-0.388
	c-0.061-0.201-0.137-0.396-0.233-0.58C25.807,32.826,26.025,33.031,26.163,33.285z M23.757,33.475h0.373
	c-0.027,0.158-0.047,0.32-0.051,0.488h-0.391c-0.002-0.021-0.004-0.039-0.004-0.061C23.685,33.754,23.712,33.609,23.757,33.475z
	 M25.563,35.164h0.127v0.014c-0.013,0-0.017,0.002-0.021,0.006c-0.01,0.004-0.016,0.012-0.018,0.021
	c-0.002,0.004-0.012,0.021-0.021,0.057l-0.154,0.404h-0.016l-0.121-0.316l-0.133,0.316H25.19l-0.162-0.398
	c-0.019-0.043-0.027-0.064-0.035-0.074c-0.004-0.01-0.018-0.014-0.031-0.016v-0.012h0.211v0.012c-0.016,0-0.025,0.002-0.031,0.008
	c-0.008,0.004-0.01,0.01-0.01,0.021c0,0.008,0.004,0.023,0.018,0.061l0.097,0.234l0.077-0.188l-0.021-0.053
	c-0.01-0.027-0.021-0.049-0.024-0.059c-0.008-0.01-0.014-0.018-0.021-0.02c-0.01-0.004-0.021-0.008-0.037-0.008v-0.014h0.238v0.014
	c-0.017,0-0.028,0.004-0.035,0.004c-0.006,0.002-0.01,0.006-0.014,0.008c0,0.006-0.003,0.01-0.003,0.016s0.005,0.021,0.017,0.051
	l0.092,0.232l0.076-0.211c0.012-0.021,0.018-0.037,0.018-0.043c0.004-0.01,0.007-0.018,0.007-0.023c0-0.01-0.007-0.016-0.013-0.021
	c-0.01-0.006-0.021-0.01-0.037-0.01v-0.014H25.563z M26.048,35.43c0.021,0.023,0.031,0.055,0.031,0.086
	c0,0.039-0.017,0.076-0.05,0.105c-0.03,0.029-0.071,0.045-0.122,0.045c-0.017,0-0.027-0.002-0.041-0.004
	c-0.017-0.006-0.033-0.012-0.052-0.02c-0.016-0.008-0.022-0.01-0.028-0.01c-0.009,0-0.015,0.002-0.021,0.01
	c-0.009,0.006-0.014,0.012-0.02,0.021H25.73v-0.187h0.016c0.012,0.056,0.031,0.092,0.063,0.118c0.029,0.027,0.063,0.041,0.099,0.041
	c0.026,0,0.051-0.006,0.065-0.02c0.014-0.017,0.021-0.031,0.021-0.056c0-0.011-0.008-0.021-0.014-0.031
	c-0.004-0.01-0.017-0.021-0.023-0.03c-0.016-0.01-0.037-0.022-0.066-0.039c-0.043-0.021-0.076-0.039-0.098-0.056
	c-0.021-0.016-0.037-0.032-0.047-0.053c-0.012-0.021-0.018-0.039-0.018-0.063c0-0.039,0.018-0.072,0.045-0.102
	c0.026-0.025,0.063-0.041,0.104-0.041c0.021,0,0.035,0.004,0.052,0.008c0.01,0.002,0.022,0.008,0.041,0.016
	c0.016,0.008,0.024,0.012,0.032,0.012c0.007,0,0.013-0.002,0.015-0.006c0.004-0.006,0.008-0.014,0.01-0.027h0.014l0.004,0.164
	h-0.018c-0.006-0.041-0.021-0.072-0.051-0.1c-0.025-0.025-0.059-0.037-0.09-0.037c-0.021,0-0.043,0.006-0.059,0.021
	c-0.014,0.014-0.021,0.027-0.021,0.047c0,0.01,0.006,0.021,0.01,0.025c0.009,0.016,0.021,0.023,0.033,0.035
	c0.012,0.008,0.035,0.021,0.08,0.041C25.991,35.377,26.025,35.404,26.048,35.43z M24.907,35.498h0.014L24.9,35.654h-0.424v-0.016
	h0.019c0.012,0,0.024-0.004,0.032-0.008c0.007-0.004,0.011-0.01,0.013-0.018c0.006-0.008,0.006-0.021,0.006-0.049v-0.32
	c0-0.021,0-0.035-0.004-0.041c-0.002-0.012-0.006-0.016-0.013-0.021c-0.008-0.007-0.021-0.009-0.034-0.009h-0.019v-0.014h0.408
	v0.146H24.87c-0.004-0.035-0.016-0.062-0.027-0.076c-0.014-0.017-0.031-0.024-0.055-0.035c-0.014-0.004-0.039-0.004-0.076-0.004
	h-0.051v0.197h0.01c0.031,0,0.055-0.009,0.068-0.029c0.016-0.019,0.023-0.049,0.027-0.086h0.014v0.259h-0.014
	c-0.004-0.029-0.011-0.052-0.021-0.068c-0.009-0.021-0.021-0.028-0.031-0.035c-0.014-0.006-0.03-0.01-0.055-0.01v0.14
	c0,0.026,0.002,0.043,0.004,0.049c0.004,0.006,0.006,0.013,0.015,0.017c0.006,0.004,0.016,0.006,0.028,0.006h0.03
	c0.044,0,0.08-0.012,0.109-0.03C24.876,35.574,24.894,35.541,24.907,35.498z M24.282,35.164h0.16v0.014
	c-0.021,0.002-0.035,0.006-0.041,0.008c-0.008,0.008-0.014,0.014-0.017,0.021c-0.006,0.01-0.008,0.025-0.008,0.049v0.408h-0.015
	l-0.332-0.408v0.313c0,0.029,0.009,0.05,0.021,0.06c0.012,0.011,0.025,0.015,0.043,0.015h0.01v0.017h-0.17v-0.017
	c0.025,0,0.043-0.004,0.055-0.017c0.011-0.01,0.015-0.028,0.015-0.058v-0.346l-0.01-0.015c-0.011-0.015-0.019-0.022-0.025-0.024
	c-0.008-0.004-0.021-0.007-0.032-0.007v-0.014h0.17l0.244,0.303v-0.211c0-0.026-0.004-0.049-0.013-0.062
	c-0.01-0.014-0.03-0.021-0.058-0.021v-0.012h0.003V35.164z"/>
</svg>
