<?xml version="1.0" encoding="utf-8"?>
<!-- Generator: Adobe Illustrator 16.0.0, SVG Export Plug-In . SVG Version: 6.00 Build 0)  -->
<!DOCTYPE svg PUBLIC "-//W3C//DTD SVG 1.1//EN" "http://www.w3.org/Graphics/SVG/1.1/DTD/svg11.dtd">
<svg version="1.1" id="Layer_1" xmlns="http://www.w3.org/2000/svg" xmlns:xlink="http://www.w3.org/1999/xlink" x="0px" y="0px"
	 width="50px" height="50px" viewBox="0 0 50 50" enable-background="new 0 0 50 50" xml:space="preserve">
<path fill="#FFFFFF" d="M43.706,40.939V16.617H26.032l10.577-10.58l-1.172-1.173L25,15.301L14.565,4.864l-1.174,1.173l10.576,10.58
	H6.294v24.322h13.652v1.8H16.52v2.397h16.958v-2.397h-3.426v-1.8H43.706L43.706,40.939z M41.218,36.744h-6.997
	c-0.152-2.889-1.617-5.418-3.818-7.008c0.386-0.514,0.707-1.084,0.938-1.707c0.75-0.035,1.354-0.828,1.354-1.799
	c0-0.747-0.367-1.384-0.896-1.646c0.145-1.304,0.131-3.433-1.773-4.856c-0.305-0.228-0.604-0.434-0.898-0.625h12.1v17.64H41.218z
	 M26.354,36.211V34.51h-0.185c0.058-0.111,0.104-0.232,0.123-0.359H25.88c-0.006,0.121-0.017,0.24-0.034,0.359h-0.189
	c0.021-0.117,0.031-0.238,0.035-0.359h-0.616v0.359h-0.189V34.15h-0.612c0.006,0.121,0.021,0.242,0.039,0.358h-0.189
	c-0.018-0.116-0.033-0.237-0.039-0.358h-0.371c0.023,0.127,0.066,0.248,0.127,0.358h-0.188v1.701h0.645l0.033,0.533h-1.826v-4.791
	c0.779,0.312,1.627,0.479,2.502,0.479c1.06,0,2.076-0.246,2.984-0.695v5.01H25.68l0.034-0.533h0.64V36.211L26.354,36.211z
	 M23.8,36.063v-1.4h2.402v1.4H23.8z M18.522,25.91c0.182-0.707,1.176-2.874,3.881-3.5c0.065-0.013,0.123-0.034,0.182-0.05
	c1.438,0.992,2.164,0.758,3.545,0.5c0.397-0.074,0.754-0.104,1.097-0.115c0.823-0.028,1.489,0.105,2.024,0.341
	c0.978,0.604,1.58,1.409,1.912,2.045c0.196,0.53,0.228,0.95,0.192,1.004c0.015,0.006,0.063-0.082,0.121-0.225
	c0.03,0.127,0.041,0.209,0.026,0.225c0.026,0.012,0.156-0.391,0.244-1.003c0.017,0.014,0.028,0.029,0.045,0.045
	c0.051,0.047,0.103,0.096,0.144,0.153c0.006,0.006,0.006,0.015,0.013,0.022c0.051,0.07,0.096,0.15,0.133,0.24
	c0.006,0.008,0.008,0.023,0.012,0.033c0.033,0.084,0.062,0.172,0.082,0.264c0.021,0.109,0.033,0.226,0.033,0.342
	c0,0.722-0.406,1.306-0.906,1.316c-0.008-0.006-0.021-0.008-0.028-0.01c-0.021-0.008-0.033-0.014-0.06-0.016c0,0-0.002,0-0.004,0
	l-0.194-0.025h-0.002l-0.063,0.184c-0.223,0.656-0.549,1.254-0.947,1.783c-0.479,0.633-1.07,1.166-1.744,1.576
	c-0.088,0.053-0.18,0.1-0.271,0.148c-0.896,0.485-1.918,0.76-2.985,0.76c-0.881,0-1.727-0.187-2.5-0.521
	c-0.26-0.113-0.516-0.242-0.76-0.389c-0.672-0.41-1.264-0.943-1.742-1.572c-0.402-0.533-0.727-1.131-0.947-1.785l-0.064-0.186
	l-0.196,0.025c-0.002,0-0.002,0-0.002,0c-0.026,0.004-0.045,0.008-0.06,0.016c-0.01,0.004-0.022,0.006-0.03,0.01
	c-0.5-0.012-0.904-0.596-0.904-1.314c0-0.119,0.013-0.231,0.033-0.342c0.019-0.094,0.049-0.178,0.08-0.264
	c0.004-0.01,0.006-0.025,0.012-0.035c0.037-0.088,0.084-0.167,0.131-0.24c0.007-0.008,0.011-0.017,0.017-0.021
	c0.041-0.059,0.09-0.107,0.141-0.153c0.016-0.016,0.029-0.032,0.045-0.045c0.09,0.612,0.217,1.014,0.244,1.004
	C18.481,26.119,18.491,26.037,18.522,25.91z M8.784,19.104h12.391c-0.693,0.316-1.373,0.804-1.895,1.426
	c-1.039,1.244-1.18,2.882-1.088,4.066c-0.525,0.266-0.883,0.898-0.883,1.636c0,0.969,0.604,1.762,1.352,1.797
	c0.232,0.623,0.555,1.195,0.939,1.707c-2.201,1.59-3.664,4.123-3.818,7.01H8.784V19.104z M11.813,39.742H9.071v-1.199h2.742V39.742z
	 M21.478,26.135c0-0.432,0.349-0.779,0.775-0.779c0.432,0,0.781,0.349,0.781,0.779s-0.35,0.779-0.781,0.779
	C21.825,26.914,21.478,26.563,21.478,26.135z M23.054,29.828c0.457,0.309,1.156,0.508,1.947,0.508s1.487-0.199,1.947-0.508
	c-0.316,0.486-1.068,0.824-1.947,0.824S23.368,30.314,23.054,29.828z M26.966,26.135c0-0.432,0.351-0.779,0.779-0.779
	s0.778,0.349,0.778,0.779s-0.351,0.779-0.778,0.779C27.314,26.914,26.966,26.563,26.966,26.135z M24.323,33.475h0.561v0.488h-0.615
	C24.272,33.795,24.292,33.633,24.323,33.475z M24.646,32.639c0.078-0.021,0.158-0.037,0.238-0.045v0.691h-0.516
	C24.433,33.059,24.526,32.842,24.646,32.639z M25.628,33.475c0.035,0.158,0.054,0.32,0.062,0.488h-0.616v-0.488H25.628z
	 M24.372,32.748c-0.082,0.172-0.15,0.352-0.197,0.537h-0.336C23.962,33.059,24.146,32.871,24.372,32.748z M26.245,33.475
	c0.045,0.135,0.071,0.279,0.071,0.431c0,0.021-0.002,0.036-0.004,0.059h-0.437c-0.01-0.166-0.026-0.328-0.06-0.485h0.428
	L26.245,33.475L26.245,33.475z M25.581,33.285h-0.508v-0.693c0.068,0.004,0.133,0.012,0.197,0.025
	C25.403,32.824,25.509,33.047,25.581,33.285z M26.163,33.285h-0.388c-0.06-0.201-0.137-0.396-0.233-0.58
	C25.807,32.826,26.025,33.031,26.163,33.285z M23.757,33.475h0.373c-0.027,0.158-0.047,0.32-0.051,0.488h-0.391
	c-0.002-0.021-0.004-0.039-0.004-0.061C23.685,33.754,23.712,33.609,23.757,33.475z M25.563,35.164h0.127v0.014
	c-0.013,0-0.017,0.002-0.022,0.006c-0.01,0.004-0.015,0.012-0.017,0.021c-0.002,0.004-0.012,0.021-0.022,0.057l-0.154,0.404h-0.016
	l-0.121-0.316l-0.133,0.316H25.19l-0.162-0.398c-0.019-0.043-0.027-0.065-0.035-0.074c-0.004-0.01-0.018-0.014-0.031-0.016v-0.012
	h0.211v0.012c-0.016,0-0.025,0.002-0.031,0.008c-0.008,0.004-0.01,0.01-0.01,0.021c0,0.008,0.004,0.024,0.018,0.06l0.097,0.235
	l0.077-0.187l-0.021-0.053c-0.01-0.027-0.021-0.049-0.024-0.059c-0.008-0.01-0.014-0.018-0.021-0.02
	c-0.01-0.004-0.021-0.007-0.037-0.007v-0.014h0.238v0.014c-0.017,0-0.028,0.003-0.035,0.003c-0.006,0.002-0.01,0.006-0.014,0.008
	c0,0.006-0.003,0.01-0.003,0.016s0.005,0.021,0.017,0.051l0.092,0.232l0.076-0.211c0.012-0.021,0.018-0.037,0.018-0.043
	c0.004-0.01,0.006-0.017,0.006-0.023c0-0.01-0.006-0.016-0.012-0.021c-0.01-0.006-0.021-0.01-0.037-0.01v-0.014H25.563z
	 M26.048,35.43c0.021,0.023,0.031,0.055,0.031,0.086c0,0.039-0.017,0.076-0.05,0.105c-0.03,0.029-0.071,0.045-0.122,0.045
	c-0.017,0-0.027-0.002-0.041-0.004c-0.017-0.006-0.033-0.012-0.052-0.02c-0.015-0.007-0.022-0.009-0.028-0.009
	c-0.009,0-0.015,0.002-0.021,0.009c-0.008,0.006-0.013,0.012-0.019,0.021h-0.015v-0.187h0.015c0.012,0.056,0.032,0.092,0.062,0.119
	c0.03,0.027,0.063,0.041,0.099,0.041c0.026,0,0.051-0.006,0.065-0.02c0.014-0.016,0.022-0.031,0.022-0.055
	c0-0.011-0.007-0.021-0.013-0.031c-0.004-0.01-0.017-0.021-0.024-0.031c-0.015-0.01-0.037-0.023-0.067-0.039
	c-0.043-0.021-0.076-0.039-0.097-0.055s-0.037-0.033-0.047-0.053c-0.011-0.021-0.017-0.039-0.017-0.063
	c0-0.039,0.017-0.072,0.045-0.102c0.026-0.025,0.063-0.041,0.104-0.041c0.021,0,0.035,0.004,0.052,0.008
	c0.01,0.002,0.022,0.008,0.041,0.016c0.016,0.008,0.024,0.012,0.032,0.012c0.007,0,0.013-0.002,0.015-0.006
	c0.004-0.006,0.008-0.014,0.01-0.027h0.013l0.004,0.164h-0.017c-0.006-0.041-0.021-0.073-0.051-0.1
	c-0.026-0.025-0.059-0.037-0.09-0.037c-0.021,0-0.043,0.006-0.059,0.021c-0.014,0.014-0.021,0.028-0.021,0.047
	c0,0.01,0.006,0.021,0.01,0.026c0.008,0.015,0.02,0.023,0.033,0.035c0.012,0.008,0.035,0.021,0.08,0.041
	C25.991,35.377,26.025,35.404,26.048,35.43z M24.907,35.498h0.014L24.9,35.654h-0.424v-0.016h0.019c0.012,0,0.024-0.003,0.032-0.007
	c0.007-0.004,0.011-0.01,0.013-0.018c0.006-0.007,0.006-0.021,0.006-0.048v-0.321c0-0.022,0-0.035-0.004-0.041
	c-0.002-0.011-0.006-0.015-0.013-0.021c-0.008-0.007-0.021-0.009-0.034-0.009h-0.019v-0.014h0.408v0.146H24.87
	c-0.004-0.035-0.016-0.062-0.027-0.076c-0.014-0.017-0.031-0.025-0.055-0.035c-0.014-0.004-0.039-0.004-0.076-0.004h-0.051v0.197
	h0.01c0.031,0,0.055-0.009,0.068-0.029c0.016-0.019,0.023-0.049,0.027-0.086h0.014v0.258h-0.014
	c-0.004-0.029-0.011-0.051-0.021-0.068c-0.009-0.02-0.021-0.029-0.031-0.035c-0.014-0.006-0.03-0.01-0.055-0.01v0.139
	c0,0.027,0.002,0.043,0.004,0.049c0.004,0.006,0.006,0.013,0.015,0.017c0.006,0.004,0.016,0.006,0.028,0.006h0.03
	c0.044,0,0.08-0.012,0.109-0.03C24.876,35.574,24.894,35.541,24.907,35.498z M24.282,35.164h0.16v0.014
	c-0.021,0.002-0.035,0.006-0.041,0.008c-0.008,0.008-0.014,0.013-0.017,0.021c-0.006,0.01-0.008,0.025-0.008,0.049v0.408h-0.015
	l-0.332-0.408v0.313c0,0.029,0.009,0.049,0.021,0.059c0.012,0.01,0.025,0.014,0.043,0.014h0.01v0.017h-0.17v-0.017
	c0.025,0,0.043-0.004,0.055-0.016c0.011-0.01,0.015-0.029,0.015-0.057v-0.346l-0.01-0.015c-0.011-0.015-0.019-0.022-0.025-0.024
	c-0.008-0.004-0.021-0.007-0.032-0.007v-0.014h0.17l0.244,0.303v-0.211c0-0.026-0.004-0.049-0.013-0.062
	c-0.01-0.014-0.03-0.021-0.058-0.02v-0.012h0.003V35.164z"/>
</svg>
