<?xml version="1.0" encoding="utf-8"?>
<!-- Generator: Adobe Illustrator 16.0.0, SVG Export Plug-In . SVG Version: 6.00 Build 0)  -->
<!DOCTYPE svg PUBLIC "-//W3C//DTD SVG 1.1//EN" "http://www.w3.org/Graphics/SVG/1.1/DTD/svg11.dtd">
<svg version="1.1" id="Layer_1" xmlns="http://www.w3.org/2000/svg" xmlns:xlink="http://www.w3.org/1999/xlink" x="0px" y="0px"
	 width="50px" height="50px" viewBox="32.25 31.69 50 50" enable-background="new 32.25 31.69 50 50" xml:space="preserve">
<path fill="#FFFFFF" d="M51.114,32.69c-10.171,0-18.415,8.243-18.415,18.414c0,10.172,8.244,18.415,18.415,18.415
	c10.171,0,18.414-8.242,18.414-18.415C69.527,40.933,61.285,32.69,51.114,32.69z M51.114,36.272c2.844,0,4.167,0.706,4.167,2.948
	c0,2.243-3.297,4.353-4.167,4.353c-0.874,0-4.172-2.11-4.172-4.353C46.942,36.979,48.27,36.272,51.114,36.272z M38.819,51.716
	c-2.134-0.692-2.398-2.168-1.522-4.871c0.878-2.708,1.956-3.753,4.092-3.063c2.128,0.692,3.125,4.479,2.853,5.307
	C43.975,49.917,40.953,52.405,38.819,51.716z M47.727,63.11c-1.232,1.879-2.725,1.75-5.11,0.199
	c-2.376-1.555-3.102-2.869-1.878-4.746c1.224-1.88,5.135-1.845,5.866-1.369C47.336,57.671,48.945,61.245,47.727,63.11z
	 M51.114,53.866c-1.526,0-2.762-1.235-2.762-2.762c0-1.526,1.235-2.762,2.762-2.762c1.528,0,2.762,1.235,2.762,2.762
	C53.876,52.63,52.642,53.866,51.114,53.866z M59.77,63.062c-2.314,1.643-3.807,1.838-5.102,0.01
	c-1.301-1.828,0.17-5.457,0.874-5.958c0.712-0.51,4.625-0.693,5.918,1.123C62.76,60.067,62.09,61.413,59.77,63.062z M63.399,51.716
	c-2.131,0.689-5.153-1.798-5.419-2.627c-0.274-0.828,0.723-4.615,2.85-5.307c2.138-0.689,3.216,0.356,4.092,3.063
	C65.797,49.544,65.534,51.024,63.399,51.716z M80.401,77.808l-1.285,3.883c-0.31-0.102-7.543-2.57-7.543-9.125
	c0-7.742,6.137-9.566,6.137-16.423c0-3.121-2.906-6.438-6.604-9.369c-0.563-2.609-1.618-5.036-3.073-7.171
	c6.386,3.92,13.77,9.888,13.77,16.541c0,4.254-1.809,6.938-3.405,9.305c-1.468,2.174-2.731,4.051-2.731,7.117
	C75.665,76.14,80.353,77.79,80.401,77.808z"/>
</svg>
