<?xml version="1.0" encoding="utf-8"?>
<!-- Generator: Adobe Illustrator 16.0.0, SVG Export Plug-In . SVG Version: 6.00 Build 0)  -->
<!DOCTYPE svg PUBLIC "-//W3C//DTD SVG 1.1//EN" "http://www.w3.org/Graphics/SVG/1.1/DTD/svg11.dtd">
<svg version="1.1" id="Layer_1" xmlns="http://www.w3.org/2000/svg" xmlns:xlink="http://www.w3.org/1999/xlink" x="0px" y="0px"
	 width="50px" height="50px" viewBox="0 0 50 50" enable-background="new 0 0 50 50" xml:space="preserve">
<path fill="#AA0000" d="M18.862,0.499c-10.17,0-18.414,8.244-18.414,18.414c0,10.172,8.244,18.416,18.414,18.416
	c10.172,0,18.414-8.242,18.414-18.416C37.276,8.743,29.034,0.499,18.862,0.499z M18.862,4.081c2.845,0,4.168,0.707,4.168,2.948
	c0,2.243-3.297,4.354-4.168,4.354c-0.873,0-4.172-2.11-4.172-4.354C14.69,4.788,16.019,4.081,18.862,4.081z M6.567,19.525
	c-2.133-0.692-2.397-2.168-1.521-4.871c0.878-2.708,1.956-3.753,4.092-3.063c2.129,0.692,3.125,4.479,2.854,5.307
	C11.724,17.727,8.702,20.215,6.567,19.525z M15.476,30.919c-1.231,1.88-2.725,1.75-5.109,0.199
	c-2.376-1.555-3.102-2.869-1.879-4.746c1.225-1.879,5.136-1.845,5.867-1.369C15.085,25.48,16.694,29.055,15.476,30.919z
	 M18.862,21.676c-1.525,0-2.762-1.235-2.762-2.763c0-1.525,1.235-2.762,2.762-2.762c1.529,0,2.763,1.235,2.763,2.762
	S20.392,21.676,18.862,21.676z M27.519,30.872c-2.313,1.643-3.807,1.838-5.102,0.01c-1.301-1.828,0.17-5.457,0.874-5.958
	c0.712-0.511,4.625-0.693,5.918,1.122C30.509,27.876,29.839,29.223,27.519,30.872z M31.147,19.525
	c-2.131,0.689-5.152-1.798-5.418-2.627c-0.274-0.828,0.723-4.614,2.85-5.307c2.138-0.689,3.216,0.356,4.092,3.063
	C33.546,17.354,33.283,18.833,31.147,19.525z M48.149,45.618l-1.284,3.883c-0.31-0.103-7.543-2.57-7.543-9.125
	c0-7.742,6.137-9.566,6.137-16.424c0-3.121-2.905-6.438-6.604-9.369c-0.563-2.608-1.617-5.035-3.072-7.17
	c6.386,3.92,13.77,9.888,13.77,16.541c0,4.254-1.809,6.938-3.404,9.305c-1.469,2.174-2.731,4.051-2.731,7.117
	C43.414,43.95,48.103,45.6,48.149,45.618z"/>
</svg>
