<?xml version="1.0" encoding="utf-8"?>
<!-- Generator: Adobe Illustrator 16.0.0, SVG Export Plug-In . SVG Version: 6.00 Build 0)  -->
<!DOCTYPE svg PUBLIC "-//W3C//DTD SVG 1.1//EN" "http://www.w3.org/Graphics/SVG/1.1/DTD/svg11.dtd">
<svg version="1.1" id="Layer_1" xmlns="http://www.w3.org/2000/svg" xmlns:xlink="http://www.w3.org/1999/xlink" x="0px" y="0px"
	 width="114.5px" height="113.381px" viewBox="-1.502 -1.619 114.5 113.381" enable-background="new -1.502 -1.619 114.5 113.381"
	 xml:space="preserve">
<path fill="#FFFFFF" d="M42,0.001c-23.197,0-42,18.802-42,42c0,23.199,18.803,42,42,42c23.199,0,42-18.801,42-42
	S65.199,0.001,42,0.001z M42,8.172c6.487,0,9.506,1.61,9.506,6.725c0,5.115-7.521,9.927-9.506,9.927
	c-1.992,0-9.515-4.812-9.515-9.927C32.485,9.782,35.513,8.172,42,8.172z M13.958,43.396c-4.867-1.578-5.47-4.945-3.473-11.109
	c2.002-6.176,4.461-8.561,9.333-6.986c4.854,1.578,7.126,10.215,6.505,12.104C25.718,39.294,18.826,44.969,13.958,43.396z
	 M34.277,69.385c-2.811,4.283-6.216,3.994-11.658,0.453c-5.418-3.543-7.074-6.543-4.283-10.822
	c2.791-4.29,11.713-4.209,13.379-3.123C33.384,56.977,37.053,65.129,34.277,69.385z M42,48.301c-3.48,0-6.299-2.818-6.299-6.3
	c0-3.482,2.817-6.3,6.299-6.3c3.486,0,6.301,2.816,6.301,6.3C48.3,45.482,45.486,48.301,42,48.301z M61.744,69.272
	c-5.281,3.748-8.684,4.195-11.638,0.023c-2.968-4.168,0.388-12.445,1.993-13.589c1.624-1.162,10.551-1.582,13.5,2.558
	C68.563,62.446,67.037,65.512,61.744,69.272z M70.023,43.396c-4.863,1.572-11.756-4.102-12.361-5.992
	c-0.625-1.89,1.65-10.526,6.5-12.104c4.877-1.572,7.336,0.812,9.334,6.986C75.492,38.444,74.891,41.818,70.023,43.396z
	 M108.803,102.906l-2.935,8.856c-0.705-0.229-17.203-5.861-17.203-20.812c0-17.658,13.996-21.816,13.996-37.459
	c0-7.117-6.627-14.683-15.063-21.369c-1.283-5.95-3.689-11.485-7.009-16.356c14.563,8.941,31.406,22.554,31.406,37.727
	c0,9.706-4.125,15.824-7.767,21.223c-3.348,4.961-6.229,9.24-6.229,16.236C98,99.102,108.691,102.867,108.803,102.906z"/>
</svg>
